<svg xmlns="http://www.w3.org/2000/svg" viewBox="0 0 109.25 109.25"><defs><style>.cls-1{fill:#000;}</style></defs><g id="レイヤー_2" data-name="レイヤー 2"><g id="レイヤー_1-2" data-name="レイヤー 1"><path class="cls-1" d="M78.92,109.25H30.33A30.36,30.36,0,0,1,0,78.92V30.33A30.36,30.36,0,0,1,30.33,0H78.92a30.37,30.37,0,0,1,30.33,30.33V78.92A30.37,30.37,0,0,1,78.92,109.25ZM30.33,9.92A20.44,20.44,0,0,0,9.92,30.33V78.92A20.44,20.44,0,0,0,30.33,99.33H78.92A20.44,20.44,0,0,0,99.33,78.92V30.33A20.44,20.44,0,0,0,78.92,9.92Z"/><path class="cls-1" d="M54.62,82.43A27.81,27.81,0,1,1,82.43,54.62,27.83,27.83,0,0,1,54.62,82.43Zm0-45.69A17.89,17.89,0,1,0,72.51,54.62,17.9,17.9,0,0,0,54.62,36.74Z"/><circle class="cls-1" cx="84" cy="26.09" r="7.28"/></g></g></svg>